<mxfile host="app.diagrams.net" modified="2023-10-08T15:44:21.951Z" agent="Mozilla/5.0 (Windows NT 10.0; Win64; x64) AppleWebKit/537.36 (KHTML, like Gecko) Chrome/117.0.0.0 Safari/537.36 Edg/117.0.2045.47" etag="7_sgK6qbwwnxZdynz0A9" version="22.0.4" type="device">
  <diagram name="Page-1" id="mKRtxmhU7NOtCti8sPBy">
    <mxGraphModel dx="1062" dy="592" grid="1" gridSize="10" guides="1" tooltips="1" connect="1" arrows="1" fold="1" page="1" pageScale="1" pageWidth="850" pageHeight="1100" math="0" shadow="0">
      <root>
        <mxCell id="0" />
        <mxCell id="1" parent="0" />
        <mxCell id="nSdMBXf0cxcsSDTW76qy-1" value="&amp;lt;&amp;lt; device &amp;gt;&amp;gt;&lt;br&gt;Web Server" style="verticalAlign=top;align=left;spacingTop=8;spacingLeft=2;spacingRight=12;shape=cube;size=10;direction=south;fontStyle=0;html=1;whiteSpace=wrap;" vertex="1" parent="1">
          <mxGeometry x="280" y="200" width="145" height="100" as="geometry" />
        </mxCell>
        <mxCell id="nSdMBXf0cxcsSDTW76qy-2" value="&amp;lt;&amp;lt; device &amp;gt;&amp;gt;&lt;br&gt;:UserClient" style="verticalAlign=top;align=left;spacingTop=8;spacingLeft=2;spacingRight=12;shape=cube;size=10;direction=south;fontStyle=0;html=1;whiteSpace=wrap;" vertex="1" parent="1">
          <mxGeometry x="530" y="260" width="200" height="150" as="geometry" />
        </mxCell>
        <mxCell id="nSdMBXf0cxcsSDTW76qy-3" value="&amp;lt;&amp;lt; device &amp;gt;&amp;gt;&lt;br&gt;:DB Server" style="verticalAlign=top;align=left;spacingTop=8;spacingLeft=2;spacingRight=12;shape=cube;size=10;direction=south;fontStyle=0;html=1;whiteSpace=wrap;" vertex="1" parent="1">
          <mxGeometry x="530" y="100" width="195" height="120" as="geometry" />
        </mxCell>
        <mxCell id="nSdMBXf0cxcsSDTW76qy-4" value="&amp;lt;&amp;lt; artifact &amp;gt;&amp;gt;&lt;br&gt;Supabase DB" style="rounded=1;whiteSpace=wrap;html=1;align=center;" vertex="1" parent="1">
          <mxGeometry x="550" y="160" width="100" height="50" as="geometry" />
        </mxCell>
        <mxCell id="nSdMBXf0cxcsSDTW76qy-5" value="" style="endArrow=none;html=1;rounded=0;exitX=0;exitY=0;exitDx=40;exitDy=0;exitPerimeter=0;entryX=0;entryY=0;entryDx=65;entryDy=195;entryPerimeter=0;" edge="1" parent="1" source="nSdMBXf0cxcsSDTW76qy-1" target="nSdMBXf0cxcsSDTW76qy-3">
          <mxGeometry width="50" height="50" relative="1" as="geometry">
            <mxPoint x="420" y="220" as="sourcePoint" />
            <mxPoint x="470" y="170" as="targetPoint" />
          </mxGeometry>
        </mxCell>
        <mxCell id="nSdMBXf0cxcsSDTW76qy-6" value="&amp;lt;&amp;lt; device &amp;gt;&amp;gt;&lt;br&gt;:Browser (or :WebView)" style="verticalAlign=top;align=left;spacingTop=8;spacingLeft=2;spacingRight=12;shape=cube;size=10;direction=south;fontStyle=0;html=1;whiteSpace=wrap;" vertex="1" parent="1">
          <mxGeometry x="535" y="306" width="175" height="94" as="geometry" />
        </mxCell>
        <mxCell id="nSdMBXf0cxcsSDTW76qy-7" value="&amp;lt;&amp;lt; artifact &amp;gt;&amp;gt;&lt;br&gt;HTML, JS" style="rounded=1;whiteSpace=wrap;html=1;align=center;" vertex="1" parent="1">
          <mxGeometry x="560" y="355" width="90" height="40" as="geometry" />
        </mxCell>
        <mxCell id="nSdMBXf0cxcsSDTW76qy-9" value="" style="endArrow=none;html=1;rounded=0;exitX=0;exitY=0;exitDx=40;exitDy=0;exitPerimeter=0;entryX=0;entryY=0;entryDx=80;entryDy=200;entryPerimeter=0;" edge="1" parent="1" source="nSdMBXf0cxcsSDTW76qy-1" target="nSdMBXf0cxcsSDTW76qy-2">
          <mxGeometry width="50" height="50" relative="1" as="geometry">
            <mxPoint x="440" y="250" as="sourcePoint" />
            <mxPoint x="530" y="175" as="targetPoint" />
          </mxGeometry>
        </mxCell>
        <mxCell id="nSdMBXf0cxcsSDTW76qy-10" value="HTTPS" style="edgeLabel;html=1;align=center;verticalAlign=middle;resizable=0;points=[];" vertex="1" connectable="0" parent="nSdMBXf0cxcsSDTW76qy-9">
          <mxGeometry x="-0.0692" y="-1" relative="1" as="geometry">
            <mxPoint as="offset" />
          </mxGeometry>
        </mxCell>
        <mxCell id="nSdMBXf0cxcsSDTW76qy-11" value="&amp;lt;&amp;lt; artifact &amp;gt;&amp;gt;&lt;br&gt;NodeJS" style="rounded=1;whiteSpace=wrap;html=1;align=center;" vertex="1" parent="1">
          <mxGeometry x="290" y="250" width="90" height="40" as="geometry" />
        </mxCell>
      </root>
    </mxGraphModel>
  </diagram>
</mxfile>
